<svg width="24" height="24" viewBox="0 0 24 24" fill="none" xmlns="http://www.w3.org/2000/svg">
<g clip-path="url(#clip0_6165_5926)">
<path d="M19 12V7.828C19 7.298 18.789 6.789 18.414 6.414L15.586 3.586C15.211 3.211 14.702 3 14.172 3H7C5.895 3 5 3.895 5 5V19C5 20.105 5.895 21 7 21H13" stroke="#0F172A" stroke-width="1.5" stroke-linecap="round" stroke-linejoin="round"/>
<path d="M8 11H14" stroke="#0F172A" stroke-width="1.5" stroke-linecap="round" stroke-linejoin="round"/>
<path d="M8 14H14" stroke="#0F172A" stroke-width="1.5" stroke-linecap="round" stroke-linejoin="round"/>
<path d="M8 17H12.33" stroke="#0F172A" stroke-width="1.5" stroke-linecap="round" stroke-linejoin="round"/>
<path d="M19 8H15C14.448 8 14 7.552 14 7V3" stroke="#0F172A" stroke-width="1.5" stroke-linecap="round" stroke-linejoin="round"/>
<path d="M20.4211 20.6842V20.4278C20.4201 20.0773 20.2804 19.7415 20.0326 19.4937C19.7848 19.2459 19.449 19.1063 19.0985 19.1053H17.3225C16.9721 19.1063 16.6363 19.2459 16.3885 19.4937C16.1407 19.7415 16.001 20.0773 16 20.4278V20.6842C16 20.768 16.0333 20.8483 16.0925 20.9075C16.1517 20.9667 16.232 21 16.3158 21H20.1053C20.189 21 20.2693 20.9667 20.3286 20.9075C20.3878 20.8483 20.4211 20.768 20.4211 20.6842Z" stroke="#0F172A" stroke-width="1.25" stroke-linecap="round" stroke-linejoin="round"/>
<path d="M18.2124 17.5263C18.91 17.5263 19.4755 16.9608 19.4755 16.2632C19.4755 15.5655 18.91 15 18.2124 15C17.5148 15 16.9492 15.5655 16.9492 16.2632C16.9492 16.9608 17.5148 17.5263 18.2124 17.5263Z" stroke="#0F172A" stroke-width="1.25" stroke-linecap="round" stroke-linejoin="round"/>
</g>
<defs>
<clipPath id="clip0_6165_5926">
<rect width="24" height="24" fill="white"/>
</clipPath>
</defs>
</svg>
