<svg width="112" height="112" viewBox="0 0 112 112" fill="none" xmlns="http://www.w3.org/2000/svg">
<circle cx="56" cy="56" r="56" fill="white"/>
<path d="M93.8828 58.4138C93.8828 57.9115 94.3875 57.7999 94.9341 57.6467C95.2709 57.5629 95.6212 57.4652 95.9157 57.2559V58.1629C95.6352 58.6231 95.1588 58.8884 94.5276 58.8884C94.1489 58.8884 93.8828 58.693 93.8828 58.4138ZM91.7099 56.0976C92.3547 55.6508 93.5744 55.316 94.8081 55.316C95.523 55.316 95.9157 55.4276 95.9157 55.7068C95.9157 56.1114 95.3407 56.1952 94.3596 56.3624C92.8738 56.6277 90.8828 56.9902 90.8828 58.818C90.8828 60.1996 91.7378 60.9667 93.2799 60.9667C94.3596 60.9667 95.1867 60.5482 95.9157 59.7528V60.7991H98.9999V56.167C98.9999 54.2975 97.4857 53.1113 95.1025 53.1113C93.7567 53.1113 92.6068 53.2928 91.7099 53.6137V56.0971V56.0976Z" fill="#E4002B"/>
<path d="M82.0938 60.8H85.2761V57.5211L87.1689 60.8H90.9397L88.136 56.4604L90.9537 53.2654H87.5471L85.2761 56.4604V50.8936H82.0938V60.8Z" fill="#E4002B"/>
<path d="M72.1836 60.8003H75.3799V56.3636C75.6325 55.7497 76.053 55.4844 76.6559 55.4844C77.343 55.4844 77.7635 56.0006 77.7635 56.8516V60.7999H80.9737V56.3349C80.9737 54.4093 79.754 53.1255 77.9175 53.1255C76.8238 53.1255 75.9125 53.544 75.2678 54.2978V53.2653H72.1836V60.8003Z" fill="#E4002B"/>
<path d="M70.9229 50.8936H67.7266V52.289H70.9229V50.8936Z" fill="#E4002B"/>
<path d="M70.9229 53.2651H67.7266V60.7997H70.9229V53.2651Z" fill="#E4002B"/>
<path d="M59.3828 60.7997H66.743V58.5672H63.182L66.6309 55.4421V53.279L59.6633 53.2651V55.4976H62.8033L59.3828 58.595V60.7997Z" fill="#E4002B"/>
<path d="M52.7817 60.8003H55.978V56.503C56.2306 55.8613 56.7209 55.6099 57.5061 55.6099C58.0248 55.6099 58.5295 55.7076 58.8659 55.8469V53.182C58.7119 53.1399 58.5435 53.126 58.3751 53.126C57.3094 53.126 56.4544 53.6283 55.8654 54.4932V53.2653H52.7812V60.8003H52.7817Z" fill="#E4002B"/>
<path d="M45.9117 57.0326C45.9117 55.958 46.3885 55.358 47.2435 55.358C48.0985 55.358 48.5754 55.958 48.5754 57.0326C48.5754 58.1072 48.0985 58.7067 47.2435 58.7067C46.3885 58.7067 45.9117 58.1067 45.9117 57.0326ZM47.2435 60.9392C50.0193 60.9392 51.7996 59.4183 51.7996 57.0326C51.7996 54.6469 50.1035 53.126 47.2435 53.126C44.3836 53.126 42.6875 54.6469 42.6875 57.0326C42.6875 59.4183 44.3836 60.9392 47.2435 60.9392Z" fill="#E4002B"/>
<path d="M34.3594 60.8H37.5417V57.5211L39.4346 60.8H43.2053L40.4017 56.4604L43.2198 53.2654H39.8127L37.5417 56.4604V50.8936H34.3594V60.8Z" fill="#E4002B"/>
<path d="M22.8262 60.7574C22.5578 61.4435 21.781 62 21.0916 62C20.4022 62 20.0607 61.4435 20.3291 60.7574C20.5975 60.0712 21.3744 59.5147 22.0638 59.5147C22.7532 59.5147 23.0947 60.0712 22.8262 60.7574ZM24.7935 57.2193H17.0682C16.5807 57.2193 16.0317 57.6128 15.8419 58.0975C15.6521 58.5827 15.8936 58.9758 16.3811 58.9758H24.1064C24.594 58.9758 25.1429 58.5823 25.3327 58.0975C25.5225 57.6123 25.281 57.2193 24.7935 57.2193ZM26.3863 54.8131H16.9091C16.4216 54.8131 15.8726 55.2067 15.6828 55.6914C15.4931 56.1766 15.7345 56.5697 16.222 56.5697H25.6997C26.1872 56.5697 26.7361 56.1762 26.9259 55.6914C27.1157 55.2062 26.8743 54.8131 26.3868 54.8131H26.3863ZM27.4972 52.4066H16.102C15.6145 52.4066 15.0655 52.8001 14.8757 53.2848C14.686 53.7701 14.9274 54.1631 15.4149 54.1631H26.8106C27.2981 54.1631 27.847 53.7696 28.0368 53.2848C28.2266 52.7996 27.9852 52.4066 27.4976 52.4066H27.4972ZM17.1407 59.5656C16.4653 59.5656 15.7047 60.1106 15.4414 60.7828C15.1786 61.4551 15.5126 62 16.188 62C16.8635 62 17.6241 61.4551 17.8874 60.7828C18.1502 60.1106 17.8162 59.5656 17.1407 59.5656ZM18.2535 50.8783C18.4433 50.3931 18.2018 50 17.7143 50H14.291C13.8035 50 13.2546 50.3935 13.0648 50.8783C12.875 51.3635 13.1164 51.7565 13.6039 51.7565H17.0272C17.5147 51.7565 18.0637 51.363 18.2535 50.8783Z" fill="#E4002B"/>
</svg>
