<svg width="112" height="112" viewBox="0 0 112 112" fill="none" xmlns="http://www.w3.org/2000/svg">
<circle cx="56" cy="56" r="56" fill="white"/>
<g clip-path="url(#clip0_552_5623)">
<path fill-rule="evenodd" clip-rule="evenodd" d="M46.2727 50.8387C46.2383 50.7875 46.1802 50.7096 46.1372 50.6594C46.105 50.6221 46.0899 50.6136 46.0577 50.572C45.5782 49.9597 44.5215 49.5394 43.7679 49.39C42.7628 49.1916 41.7222 49.2375 40.7558 49.5575C39.971 49.8167 39.383 50.2125 38.9089 50.8653C38.4069 51.5555 38.1747 52.3555 38.1747 53.2953V57.7276H40.6504V53.0926C40.6504 52.4441 40.9826 51.8104 41.5502 51.5288C42.1931 51.2099 43.1455 51.1875 43.8185 51.4286C44.2775 51.5928 44.5258 51.8232 44.7354 52.2553C44.9504 52.7001 44.9709 53.2495 44.9709 53.7764V57.7649H45.9018C46.0287 57.7649 46.0717 57.7457 46.1985 57.7457H47.1488C47.2757 57.7468 47.3187 57.7276 47.4466 57.7276V53.4991C47.4466 52.9294 47.6444 52.2499 47.9916 51.8424C48.6484 51.0723 50.5265 51.0531 51.2306 51.7582C51.3316 51.8595 51.3854 51.9214 51.4639 52.043C51.6907 52.395 51.7842 52.8078 51.7842 53.2772V57.7276H54.2417V53.0926C54.2417 52.0761 53.9471 51.3091 53.3935 50.573L53.157 50.3085C52.4754 49.6322 51.3349 49.2514 50.3125 49.2514C49.7105 49.2514 49.3784 49.261 48.8011 49.3954L48.0389 49.6183C47.6809 49.7463 47.2563 49.9735 46.9585 50.1901C46.8263 50.2861 46.7091 50.3778 46.5941 50.493L46.2727 50.8397V50.8387ZM62.8438 55.7509H58.7846C58.4342 55.7509 58.1385 55.4064 58.117 55.0095C58.0977 54.6458 58.4008 54.2735 58.7846 54.2735L63.793 54.2916C63.793 54.6842 63.8414 54.9562 63.6941 55.2464C63.5436 55.5418 63.2018 55.7509 62.8438 55.7509ZM57.0345 49.3794V51.2632C57.0345 51.355 57.2839 51.3187 57.4624 51.3187C58.2364 51.3187 62.5794 51.292 62.9008 51.3358C63.5415 51.4232 63.7748 51.7934 63.7748 52.4451V52.5187C63.3491 52.5187 62.9513 52.5369 62.5084 52.5369H58.5986C58.1267 52.5369 57.8117 52.5721 57.4677 52.7086C57.2205 52.8068 56.9582 52.9604 56.7593 53.1321C56.5776 53.2889 56.5239 53.3263 56.353 53.5417C56.0552 53.9194 55.8606 54.4879 55.8606 54.9925C55.8606 55.6667 55.9326 56.0656 56.2852 56.6214C56.6411 57.1814 57.3957 57.7254 58.1514 57.7254H63.3093C63.9328 57.7254 64.5574 57.5089 65.0142 57.1825C65.197 57.0523 65.4475 56.8134 65.5894 56.6256C66.0237 56.0517 66.2698 55.4714 66.2698 54.6789V52.2222C66.2698 51.3123 65.8818 50.4621 65.2088 49.9501C64.4606 49.3804 63.4662 49.3228 62.4901 49.3228H57.0904C57.0474 49.3228 57.0345 49.3356 57.0345 49.3783V49.3794ZM68.4295 57.7265H70.9052V53.7561H72.6177C73.1681 53.7561 73.5594 53.8692 73.8658 54.2916C73.9281 54.378 73.984 54.4602 74.0442 54.5583C74.0776 54.6117 74.0991 54.649 74.127 54.6981L74.4441 55.2709C74.471 55.3232 74.4893 55.3626 74.5215 55.4149L75.7836 57.7265H78.5764C78.5474 57.6732 78.5281 57.6252 78.4958 57.5665C78.4603 57.5014 78.4378 57.4715 78.4023 57.4001L77.0747 54.9498C77.0392 54.8794 77.0166 54.8485 76.9811 54.7834L76.807 54.457C76.5941 54.0292 76.3351 53.5588 75.9825 53.2623C75.847 53.1481 75.4998 52.9614 75.2622 52.9614V52.9241C75.4116 52.9209 75.7298 52.7481 75.8363 52.6809C75.9857 52.586 76.1684 52.4238 76.2813 52.2915C76.4329 52.1123 76.649 51.7774 76.793 51.5619L77.7981 50.0845C77.8594 49.9938 77.911 49.9266 77.9734 49.8338C78.0368 49.7399 78.2787 49.405 78.2969 49.3239H75.5224C75.3536 49.5746 74.4721 50.924 74.2797 51.1384C74.2259 51.1992 74.1937 51.2248 74.1367 51.292L73.9722 51.4424C73.783 51.6174 73.424 51.7795 73.0638 51.7795H70.9042V46H68.4284V57.7265H68.4295ZM94.8122 55.7509H92.8008C92.3343 55.7509 91.7893 55.4522 91.5237 55.1152C91.0787 54.5509 91.069 54.2042 91.069 53.3871C91.069 53.0873 91.0894 52.7673 91.1636 52.539C91.3066 52.0995 91.6312 51.7123 92.043 51.5086C92.2451 51.4083 92.5074 51.2995 92.8008 51.2995H94.8681C95.6055 51.2995 96.3075 51.8883 96.4956 52.6212C96.5881 52.9817 96.5633 54.0772 96.4655 54.4346C96.3978 54.681 96.272 54.8922 96.1269 55.0768C95.8839 55.3861 95.3572 55.7488 94.8122 55.7488V55.7509ZM99.0014 52.8494V54.218C99.0014 55.1152 98.5865 56.0283 97.9727 56.6331C97.3588 57.2369 96.4935 57.7276 95.612 57.7276H91.9817C91.2819 57.7276 90.452 57.3595 89.9392 56.9275C89.7586 56.775 89.5339 56.5659 89.3877 56.3846C89.1867 56.1371 89.0125 55.8981 88.8878 55.5877C88.5051 54.6383 88.5922 53.9386 88.5922 52.907C88.5922 52.2851 88.7459 51.7902 88.9588 51.3678C89.0878 51.1117 89.3555 50.7352 89.5651 50.5293C90.1757 49.9287 90.8777 49.5159 91.7516 49.374C92.2644 49.2908 94.4456 49.3239 95.053 49.3239C95.9484 49.3239 96.6225 49.4551 97.2868 49.8967L97.6964 50.1922C98.063 50.4728 98.4252 50.9187 98.6338 51.3315C98.7456 51.5523 98.823 51.7411 98.8886 52.0025C98.9552 52.2681 98.9864 52.555 99.0004 52.8505L99.0014 52.8494ZM79.7869 53.2388V57.7265H82.2637V53.1278C82.2637 52.4366 82.5647 51.7251 83.2323 51.4286C83.4526 51.3304 83.6934 51.2995 84.0138 51.2995C85.1071 51.2995 86.2939 51.2856 87.3839 51.2995C87.4699 51.3006 87.5699 51.324 87.5699 51.244V49.3794C87.5699 49.3367 87.557 49.3239 87.514 49.3239H83.8644C83.143 49.3239 82.6507 49.3687 82.1067 49.5565C81.9799 49.6002 81.8681 49.6482 81.7541 49.7047C81.6402 49.7613 81.5359 49.8157 81.4327 49.8839C80.2868 50.6466 79.7869 51.8286 79.7869 53.2377V53.2388ZM23.6514 54.7354L23.6332 54.7258L23.6074 54.7183L23.5966 54.7109C23.4171 55.1568 23.2451 55.4277 23.057 55.8064L22.6323 56.5488C22.5711 56.6491 22.5152 56.7344 22.455 56.8347C22.0744 57.4726 21.4068 58.342 20.9209 58.9148L19.4858 60.4285C19.4009 60.5138 19.3267 60.5672 19.2439 60.6504L18.6204 61.1955C18.1743 61.5891 17.3659 62.1598 16.8607 62.4969C16.8069 62.5332 16.765 62.5545 16.7112 62.5886C16.6586 62.6228 16.622 62.6601 16.5586 62.6772C16.5908 62.7241 16.6252 62.7508 16.6725 62.786C17.0112 63.0324 17.2272 63.2052 17.6185 63.4356C18.2087 63.7834 18.8333 64.0916 19.4933 64.3092C20.1125 64.5141 20.2759 64.5546 20.9543 64.6879C21.8282 64.8607 22.6549 64.8479 23.5396 64.7999C24.4899 64.7477 25.637 64.4042 26.4798 64.0596C26.798 63.9295 26.9646 63.8314 27.2462 63.6927C27.6332 63.5028 28.1697 63.1369 28.5147 62.883C28.6556 62.7785 28.6706 62.8084 28.662 62.5662L28.5706 61.7512C28.5266 61.4867 28.4782 61.2339 28.4072 60.9907C27.9848 59.5463 27.4096 58.5756 26.5013 57.3958L25.8638 56.6619C25.8133 56.6128 25.8025 56.5968 25.7595 56.5435C25.6112 56.359 25.0446 55.8523 24.821 55.6453C24.7737 55.6016 24.7415 55.5813 24.691 55.5344C24.649 55.496 24.6146 55.4725 24.5695 55.433C24.5265 55.3968 24.4921 55.369 24.448 55.3317C24.2158 55.1376 23.7998 54.8613 23.6536 54.7354H23.6514Z" fill="#E31E25"/>
<path fill-rule="evenodd" clip-rule="evenodd" d="M23.6173 54.6607L23.6055 54.7172L23.6323 54.7247C23.656 54.714 23.6506 54.7087 23.6506 54.7343C24.2515 54.7343 25.5233 54.9892 26.0876 55.1055C27.4196 55.3797 29.0407 55.9866 30.2414 56.5819C30.7392 56.8283 31.1272 57.0448 31.6088 57.3307C31.7604 57.4214 31.8969 57.5184 32.0474 57.5974C32.0496 57.5014 32.313 56.5616 32.3259 55.5279C32.3269 55.4202 32.3463 55.3754 32.3452 55.2516C32.3452 55.1311 32.3312 55.0692 32.3259 54.9743C32.299 54.4825 32.3151 54.4079 32.2388 53.8788C31.9797 52.0941 31.3154 50.6615 30.2973 49.3409C30.2103 49.2289 30.12 49.1329 30.0286 49.0166L29.604 48.5516C29.5491 48.4982 29.5083 48.4577 29.4545 48.4033L28.4913 47.5862C28.3817 47.503 28.2667 47.4326 28.1527 47.3494C28.0366 47.264 27.9227 47.1926 27.7937 47.1147C27.2304 46.7723 26.8283 46.5707 26.208 46.3232C26.0586 46.2634 25.4512 46.0394 25.3061 46.0352C25.3061 46.2581 25.3244 46.416 25.3244 46.6443L25.3061 47.919C25.2954 48.2827 25.1782 49.3569 25.1244 49.678C25.0589 50.0663 24.9997 50.4002 24.9245 50.7735L24.3666 52.8056C24.2558 53.1342 24.1408 53.4372 24.014 53.7497C23.9484 53.9108 23.7054 54.5124 23.613 54.6596L23.6173 54.6607Z" fill="#FECC00"/>
<path fill-rule="evenodd" clip-rule="evenodd" d="M59.5282 61.5678C59.5282 61.0537 58.909 60.8329 58.5822 61.1838C58.4886 61.2841 58.4295 61.4174 58.4295 61.6041V64.3189C58.4295 65.0069 59.4325 65.0827 59.5239 64.3882C59.583 63.9413 59.4615 62.7807 59.5583 62.4287C59.6647 62.0425 59.8969 61.9742 60.2355 61.9742C60.9235 61.9742 60.7945 62.9044 60.7945 63.3781C60.7945 63.6938 60.7795 64.0458 60.7945 64.3573C60.802 64.5152 60.8665 64.6197 60.9439 64.7083C61.1256 64.9184 61.4954 64.9376 61.7126 64.7317C61.8147 64.6357 61.8523 64.5707 61.8813 64.4C61.9921 63.7322 61.7007 62.5065 62.0845 62.1268C62.2963 61.9177 62.9875 61.8313 63.1273 62.4329C63.1961 62.7274 63.1498 63.9445 63.1595 64.3584C63.1627 64.5035 63.2305 64.6347 63.3046 64.7136C63.611 65.0432 64.241 64.8384 64.241 64.3946V62.2527C64.241 61.907 64.1281 61.6308 63.9754 61.427C63.6121 60.9406 62.8338 60.8883 62.3543 61.1017C61.9082 61.3001 61.8835 61.4537 61.7093 61.57C61.5696 61.363 61.5352 61.2926 61.2965 61.1486C61.2159 61.0995 61.1116 61.0558 61.0063 61.0302C60.6322 60.9406 60.3097 60.9747 59.9786 61.1646C59.7668 61.2851 59.5755 61.538 59.5314 61.57L59.5282 61.5678ZM47.4075 62.9524C47.4075 62.4009 47.7677 61.8996 48.3202 61.8996C48.8728 61.8996 49.2512 62.3604 49.2512 62.897V62.9898C49.2512 63.5274 48.8878 63.9872 48.3019 63.9872C47.7515 63.9872 47.4086 63.4634 47.4086 62.9535L47.4075 62.9524ZM47.4258 61.5678C47.4258 61.0803 46.8582 60.8361 46.5088 61.1561C46.44 61.219 46.3465 61.3694 46.3465 61.4932V65.519C46.3465 65.7547 46.5927 65.999 46.8303 65.999C47.0023 65.999 47.17 65.9755 47.2882 65.8262C47.3753 65.7174 47.4269 65.6182 47.4258 65.4272C47.4237 65.0699 47.4258 64.7125 47.4258 64.3562C47.4634 64.384 47.515 64.4704 47.6408 64.5675C48.5255 65.2502 49.6629 64.8192 50.0639 64.0736C50.1864 63.8453 50.3208 63.521 50.3305 63.1935C50.338 62.9407 50.367 63.1124 50.3337 62.8031C50.3283 62.754 50.3337 62.7071 50.3294 62.6591C50.3068 62.3412 50.1853 62.0543 50.0445 61.7961C49.9499 61.6212 49.7983 61.4676 49.6435 61.3438C49.5844 61.2969 49.5371 61.2638 49.4672 61.2233C49.0609 60.9843 48.5331 60.9043 48.0816 61.075C47.6677 61.2318 47.5086 61.5134 47.4247 61.5689L47.4258 61.5678ZM72.3379 60.164V64.3925C72.3379 64.6251 72.5873 64.8725 72.8216 64.8725C73.0173 64.8725 73.1914 64.8384 73.314 64.6592C73.458 64.448 73.4193 64.1898 73.4161 63.8559C73.4139 63.6469 73.4795 63.6949 73.673 63.5007C73.716 63.457 73.7977 63.3898 73.845 63.3578C73.8955 63.3941 73.9557 63.4975 73.9987 63.5562L74.7598 64.5931C74.9469 64.8395 75.0017 64.8725 75.3156 64.8725C75.5414 64.8725 75.7628 64.6731 75.7628 64.3552C75.7628 64.1472 75.3608 63.6757 75.2285 63.5007C75.1232 63.3621 75.0318 63.234 74.9275 63.0975L74.6265 62.6943C74.6642 62.6388 74.6749 62.6367 74.7297 62.594C74.9007 62.4639 75.2307 62.1503 75.3898 62.0297C76.1348 61.4644 75.4468 60.724 74.9082 61.1273C74.6835 61.2947 74.2847 61.7118 74.0632 61.9145C74.0181 61.9561 73.9966 61.9625 73.9504 62.0063C73.9117 62.0436 73.8869 62.0703 73.8482 62.1087L73.415 62.5108V60.8115C73.415 60.58 73.4516 60.1683 73.3838 59.9933C73.171 59.4461 72.3357 59.5944 72.3357 60.1651L72.3379 60.164ZM78.0536 61.8633C78.3493 61.8633 78.4869 61.8686 78.7105 62.1172C78.8448 62.2665 78.8771 62.4169 78.9287 62.6388H77.3087C77.3484 62.5567 77.3635 62.3199 77.5462 62.1172C77.657 61.9934 77.8279 61.8633 78.0536 61.8633ZM76.2476 62.8788C76.2476 63.2426 76.2788 63.5199 76.4272 63.8271C76.5562 64.0928 76.6336 64.193 76.8292 64.3882C77.3441 64.9035 78.2224 65.0485 78.9126 64.8203C79.2179 64.7189 79.7736 64.4565 79.6984 64.0736C79.6296 63.7237 79.292 63.6127 79.0072 63.8047C78.8395 63.9178 78.69 64.001 78.475 64.0341C78.3267 64.0565 78.259 64.049 78.1278 64.0416C77.6763 64.0138 77.4183 63.7077 77.3269 63.3215H78.8911C79.2211 63.3215 79.6747 63.4079 79.8672 63.1263C80.2036 62.6335 79.6984 61.2254 78.5288 61.0206C78.1128 60.9481 77.6881 60.979 77.3388 61.155C77.156 61.2467 77.0582 61.299 76.912 61.4334C76.8507 61.49 76.8389 61.4793 76.7862 61.5486C76.7486 61.5977 76.7217 61.6169 76.6819 61.667C76.6422 61.7182 76.6142 61.7577 76.5809 61.8068C76.3917 62.0916 76.2455 62.4969 76.2455 62.8778L76.2476 62.8788ZM52.7137 61.8633C52.9975 61.8633 53.1663 61.8505 53.4071 62.1172C53.5791 62.3071 53.5952 62.5769 53.6253 62.6388H52.0053C52.0257 62.5972 52.029 62.5439 52.0451 62.4927C52.1096 62.2825 52.2354 62.0564 52.4332 61.954C52.4977 61.9209 52.617 61.8622 52.7127 61.8622L52.7137 61.8633ZM50.9454 62.8234C50.9454 63.4015 51.0013 63.7386 51.3388 64.1877C51.944 64.992 53.2469 65.1446 54.051 64.6112C54.309 64.4394 54.3897 64.384 54.3897 64.0981C54.3897 63.8122 54.0209 63.5669 53.7038 63.8047C53.4415 64.0021 53.1674 64.064 52.8266 64.0426C52.3816 64.0149 52.0526 63.6479 52.0257 63.3226H53.9994C54.1134 63.3226 54.2241 63.329 54.3123 63.3013L54.4703 63.218C54.5477 63.1572 54.6068 63.0751 54.6348 62.9759C54.667 62.8618 54.6573 62.8095 54.6509 62.6954C54.6391 62.4703 54.6025 62.3167 54.5359 62.1439C54.4208 61.8441 54.2295 61.5625 53.9876 61.3758C53.8135 61.2414 53.7898 61.2275 53.5823 61.1315C53.0094 60.8649 52.2741 60.9758 51.7634 61.3097C51.2872 61.6212 50.9443 62.2761 50.9443 62.8244L50.9454 62.8234ZM66.6597 64.1525C66.435 64.1525 66.2845 64.16 66.1147 63.9914C65.8212 63.7023 66.0287 62.9844 67.1026 63.2148L67.424 63.3034C67.424 63.6181 67.4122 63.7557 67.2456 63.92C67.1177 64.0469 66.907 64.1525 66.6608 64.1525H66.6597ZM65.245 61.6041C65.245 62.0233 65.5858 62.1247 65.9126 62.0265C65.9717 62.0084 66.0319 61.9945 66.1082 61.9806C66.4415 61.922 66.9403 61.8846 67.2037 62.1161C67.352 62.2463 67.4036 62.4041 67.4036 62.6751C66.9209 62.5631 67.036 62.5268 66.3791 62.5268C65.66 62.5268 64.9462 62.8938 64.9462 63.6714C64.9462 64.0714 65.0451 64.3946 65.3364 64.6133C65.8578 65.0059 66.6608 65.0037 67.18 64.6315C67.252 64.5803 67.3316 64.4938 67.4036 64.4469C67.4036 64.5813 67.4649 64.6709 67.538 64.7392C67.8444 65.024 68.4464 64.832 68.4464 64.4106V62.5087C68.4464 62.2836 68.3883 62.0436 68.3217 61.875C68.226 61.6318 68.1067 61.4825 67.9099 61.3235C67.3026 60.8371 65.7578 61.0003 65.417 61.2755C65.3332 61.3427 65.245 61.4601 65.245 61.603V61.6041ZM41.8971 61.5305V63.5989C41.8971 64.8352 43.1677 65.1798 43.8525 64.7253C44.1234 64.5451 44.246 64.3573 44.2986 64.3189C44.2986 64.4938 44.3502 64.6048 44.4341 64.7019C44.7276 65.0421 45.379 64.8459 45.379 64.3925V61.4932C45.379 61.1358 44.8404 60.8009 44.462 61.1742C44.3642 61.2702 44.3019 61.3662 44.2986 61.5294C44.289 61.9465 44.347 63.2138 44.246 63.5093C44.2073 63.6213 44.1223 63.7514 44.031 63.8133C43.7364 64.0117 43.1957 63.9914 43.0301 63.5093C42.9388 63.2437 42.9796 61.9145 42.9775 61.5294C42.9742 60.9886 42.1992 60.7998 41.9455 61.3203C41.9143 61.3833 41.8971 61.4441 41.8971 61.5305ZM40.1846 63.7834C40.1846 64.1546 39.6052 64.08 39.3805 64.0277C39.1913 63.9829 38.9602 63.889 38.7989 63.7919C38.7538 63.7653 38.714 63.7365 38.6699 63.7173C38.1486 63.4965 37.811 64.2069 38.2937 64.497C38.8441 64.8267 39.5987 65.0336 40.262 64.8395C40.7425 64.6987 41.1532 64.3509 41.1532 63.8026C41.1532 63.4581 41.1532 63.2757 40.8877 63.0132C40.5641 62.6943 40.1577 62.6079 39.7353 62.4575C39.5826 62.4031 39.2354 62.2836 39.2354 62.1044C39.2354 61.6222 40.1051 61.9028 40.4329 62.0617C41.0156 62.3423 41.3402 61.5593 40.849 61.2979C40.3502 61.0323 39.5998 60.8798 39.0032 61.1177C38.4141 61.3534 38.098 61.9796 38.3195 62.5876C38.4474 62.9386 38.786 63.1551 39.1526 63.2757C39.2537 63.3087 39.33 63.3375 39.4321 63.3674C39.6331 63.4261 40.1835 63.5391 40.1835 63.7855L40.1846 63.7834ZM80.9594 60.5704V61.0505C80.3133 61.0505 80.2724 61.9742 80.9594 61.9742V63.8581C80.9594 64.4746 81.3087 64.8917 81.9279 64.8917C82.2322 64.8917 82.717 64.9045 82.8933 64.6304C82.9857 64.4874 82.9911 64.3338 82.9159 64.1888C82.8578 64.0768 82.7557 63.985 82.6299 63.9541C82.4138 63.9008 82.0387 64.0917 82.0387 63.5434V61.9732H82.56C82.7922 61.9732 83.0083 61.7214 82.9814 61.4814C82.9245 60.9726 82.4031 61.0494 82.0387 61.0494V60.532C82.0387 60.3059 81.7828 60.052 81.5549 60.052C81.384 60.052 81.2324 60.0733 81.1034 60.2131C81.0314 60.2899 80.9594 60.4264 80.9594 60.5694V60.5704ZM55.47 61.5486V64.337C55.47 64.6187 55.7173 64.8725 55.9538 64.8725C56.4612 64.8725 56.5687 64.5803 56.5687 64.1152C56.5687 63.3983 56.4332 62.4937 57.1331 62.1449C57.4416 61.9913 57.8157 62.034 57.8157 61.5113C57.8157 61.1305 57.4147 60.867 57.0084 61.0985C56.9331 61.1411 56.8912 61.1987 56.8331 61.2563C56.7729 61.3161 56.7364 61.3705 56.6902 61.4473L56.5687 61.6585C56.5687 60.7443 55.47 60.8883 55.47 61.5476V61.5486ZM69.3784 61.4932V64.4106C69.3784 64.6315 69.6353 64.8725 69.8621 64.8725C70.089 64.8725 70.2137 64.848 70.3599 64.6464C70.6985 64.1813 69.9944 62.4084 71.2209 62.0649C71.5854 61.9636 71.7047 61.8665 71.7047 61.4558C71.7047 61.3193 71.6251 61.2179 71.552 61.1454C71.322 60.9203 70.9651 60.9854 70.7318 61.2478C70.6802 61.3065 70.6265 61.3844 70.5835 61.4516L70.4566 61.6766C70.4566 61.4494 70.4426 61.3342 70.3308 61.2105C70.1062 60.9609 69.7643 60.9481 69.5396 61.155C69.4708 61.2179 69.3773 61.3683 69.3773 61.4921L69.3784 61.4932ZM23.5941 54.7099L23.6049 54.7173L23.6156 54.6608L23.5135 53.8725C23.2942 52.3652 22.7578 50.7128 21.9935 49.3965C21.9343 49.2952 21.8827 49.2066 21.8215 49.1053C21.6215 48.7757 21.213 48.1911 20.955 47.9148C20.9077 47.8647 20.8959 47.837 20.8432 47.7858C20.6648 47.6119 20.467 47.3623 20.2692 47.2108C20.2143 47.1692 20.1939 47.1361 20.1445 47.0945C20.0391 47.0071 19.2114 46.3265 19.063 46.3606C18.8362 46.4118 17.7741 46.9718 17.5322 47.134C17.128 47.4039 16.9818 47.4892 16.5884 47.8039C16.5368 47.8455 16.5067 47.8732 16.4561 47.9127C16.4013 47.9554 16.3841 47.9778 16.3368 48.0151L15.7337 48.5805C15.6918 48.621 15.6617 48.6487 15.6219 48.6903L14.9941 49.4338C14.7179 49.7923 14.576 50.0088 14.3341 50.4046L14.0879 50.843C13.7708 51.4734 13.5655 51.9641 13.3666 52.6575C13.1591 53.3722 13 54.2949 13 55.048V55.0544C13 55.5654 13.0054 55.8875 13.0591 56.3761C13.072 56.4902 13.1118 56.6705 13.1118 56.7857L15.3156 55.8139C15.5166 55.7424 15.6854 55.6795 15.8928 55.6112C16.9291 55.2688 18.016 54.9989 19.1017 54.8421C19.3264 54.8091 19.5586 54.7813 19.8091 54.7493C19.9176 54.7355 20.0348 54.728 20.1649 54.7152C20.2713 54.7045 20.4207 54.6811 20.5401 54.6811C20.7884 54.6811 21.0217 54.6437 21.3033 54.6437C21.4183 54.6437 21.5828 54.6533 21.6914 54.6405C22.0064 54.6053 21.8505 54.6437 22.0655 54.6437C22.1956 54.6437 22.3267 54.6437 22.4568 54.6437L23.2147 54.6853C23.2867 54.6949 23.5114 54.7216 23.592 54.7109L23.5941 54.7099Z" fill="#393185"/>
</g>
<defs>
<clipPath id="clip0_552_5623">
<rect width="86" height="20" fill="white" transform="translate(13 46)"/>
</clipPath>
</defs>
</svg>
