<svg width="112" height="112" viewBox="0 0 112 112" fill="none" xmlns="http://www.w3.org/2000/svg">
<circle cx="56" cy="56" r="56" fill="white"/>
<path d="M25.9781 58.0917C26.0733 58.331 26.0431 58.6377 25.9966 58.8235C25.9153 59.1534 25.6923 59.4903 25.0325 59.4903C24.4146 59.4903 24.0382 59.1325 24.0382 58.5936V57.6341H21.3828V58.3961C21.3828 60.6031 23.1182 61.2699 24.9791 61.2699C26.7679 61.2699 28.2408 60.6612 28.4755 59.0094C28.5963 58.1545 28.508 57.5946 28.4662 57.3878C28.048 55.3155 24.2938 54.6976 24.0127 53.5383C23.9736 53.3674 23.9705 53.1902 24.0034 53.0179C24.0731 52.6996 24.2891 52.3535 24.9071 52.3535C25.4879 52.3535 25.8247 52.7113 25.8247 53.2502V53.8636H28.2943V53.1666C28.2943 51.0107 26.3591 50.6738 24.9605 50.6738C23.1995 50.6738 21.7615 51.2569 21.499 52.8716C21.4293 53.313 21.4177 53.7079 21.5222 54.2051C21.952 56.2262 25.467 56.8117 25.9781 58.0917Z" fill="#1628A4"/>
<path d="M58.0406 58.0917C58.1358 58.331 58.1056 58.6377 58.0591 58.8235C57.9778 59.1534 57.7548 59.4903 57.095 59.4903C56.4771 59.4903 56.1007 59.1325 56.1007 58.5936V57.6341H53.4453V58.3961C53.4453 60.6031 55.1807 61.2699 57.0416 61.2699C58.8304 61.2699 60.3033 60.6612 60.538 59.0094C60.6588 58.1545 60.5705 57.5946 60.5287 57.3878C60.1105 55.3155 56.3563 54.6976 56.0752 53.5383C56.0361 53.3674 56.033 53.1902 56.0659 53.0179C56.1356 52.6996 56.3516 52.3535 56.9696 52.3535C57.5504 52.3535 57.8872 52.7113 57.8872 53.2502V53.8636H60.3568V53.1666C60.3568 51.0107 58.4216 50.6738 57.023 50.6738C55.262 50.6738 53.824 51.2569 53.5615 52.8716C53.4918 53.313 53.4802 53.7079 53.5847 54.2051C54.0145 56.2262 57.5295 56.8117 58.0406 58.0917Z" fill="#1628A4"/>
<path d="M31.9759 50.6762L30.1406 60.5706H32.8146L34.169 51.5915H34.2248L35.542 60.5706H38.2021L36.3784 50.6738L31.9759 50.6762ZM46.9256 50.6762L45.7059 58.2404H45.6478L44.4305 50.6762H40.3951L40.1768 60.5706H42.6533L42.7137 51.6751H42.7694L44.4212 60.5706H46.9326L48.5867 51.6774H48.6401L48.7028 60.5706H51.177L50.9586 50.6738L46.9256 50.6762Z" fill="#1628A4"/>
<path d="M66.4507 59.3556C67.1383 59.3556 67.3497 58.8816 67.3985 58.64C67.4194 58.5332 67.4217 58.3891 67.4217 58.2613V50.9433H69.9261V58.036C69.9266 58.253 69.9189 58.47 69.9029 58.6865C69.7287 60.5334 68.2697 61.1328 66.4507 61.1328C64.6293 61.1328 63.1703 60.5334 62.9961 58.6865C62.9891 58.5889 62.9705 58.2172 62.9729 58.036V50.941H65.4772V58.259C65.4749 58.3891 65.4796 58.5332 65.5005 58.64C65.5469 58.8816 65.7607 59.3556 66.4507 59.3556ZM78.5498 50.9433L78.6845 58.7097H78.6311L76.3544 50.9433H72.6838V60.7332H75.1161L74.9814 52.6973H75.0348L77.4765 60.7332H81.0007V50.9433H78.5498ZM87.0875 59.2533C87.803 59.2533 88.0539 58.8003 88.0981 58.5331C88.119 58.424 88.1213 58.2846 88.1213 58.1614V56.7211H87.1061V55.2807H90.6117V57.9338C90.6117 58.1196 90.6071 58.2544 90.5769 58.5843C90.4143 60.387 88.8508 61.0306 87.0968 61.0306C85.3428 61.0306 83.7816 60.387 83.6166 58.5843C83.5888 58.2544 83.5818 58.1196 83.5818 57.9338V53.7706C83.5818 53.5941 83.605 53.2828 83.6236 53.1201C83.8443 51.2686 85.3428 50.6738 87.0968 50.6738C88.8508 50.6738 90.3887 51.2639 90.5699 53.1178C90.6024 53.4338 90.5932 53.7683 90.5932 53.7683V54.1005H88.0981V53.5453C88.0981 53.5453 88.0981 53.313 88.0679 53.1689C88.0214 52.9505 87.8355 52.4487 87.0782 52.4487C86.358 52.4487 86.1466 52.925 86.0932 53.1689C86.0629 53.299 86.0513 53.4756 86.0513 53.6359V58.1591C86.0513 58.2846 86.056 58.424 86.0746 58.5355C86.121 58.8003 86.3719 59.2533 87.0875 59.2533Z" fill="#1529A1"/>
</svg>
