<svg width="24" height="24" viewBox="0 0 24 24" fill="none" xmlns="http://www.w3.org/2000/svg">
<g clip-path="url(#clip0_6165_3754)">
<path d="M3.90032 15.647L5.29832 15.861C6.33032 16.019 7.06732 16.943 6.99132 17.984L6.88832 19.395C6.85832 19.806 7.08232 20.193 7.45332 20.372L8.48732 20.87C8.85832 21.049 9.30132 20.982 9.60432 20.703L10.6433 19.743C11.4093 19.035 12.5913 19.035 13.3583 19.743L14.3973 20.703C14.7003 20.983 15.1423 21.049 15.5143 20.87L16.5503 20.371C16.9203 20.193 17.1433 19.807 17.1133 19.397L17.0103 17.984C16.9343 16.943 17.6713 16.019 18.7033 15.861L20.1013 15.647C20.5083 15.585 20.8363 15.28 20.9283 14.878L21.1833 13.76C21.2753 13.358 21.1123 12.941 20.7723 12.709L19.6053 11.91C18.7443 11.32 18.4813 10.168 19.0013 9.26299L19.7063 8.03699C19.9113 7.67999 19.8773 7.23299 19.6203 6.91099L18.9053 6.01399C18.6483 5.69199 18.2203 5.55899 17.8263 5.67999L16.4743 6.09399C15.4753 6.39999 14.4103 5.88699 14.0263 4.91599L13.5083 3.60299C13.3563 3.21899 12.9853 2.96699 12.5723 2.96799L11.4263 2.97099C11.0133 2.97199 10.6433 3.22599 10.4933 3.61099L9.98832 4.90899C9.60832 5.88599 8.53832 6.40299 7.53632 6.09499L6.12832 5.66299C5.73332 5.54099 5.30332 5.67499 5.04632 5.99899L4.33632 6.89699C4.07932 7.22199 4.04832 7.66999 4.25732 8.02699L4.97832 9.25599C5.50932 10.162 5.24932 11.325 4.38332 11.918L3.23032 12.708C2.89032 12.941 2.72732 13.358 2.81932 13.759L3.07432 14.877C3.16532 15.28 3.49332 15.585 3.90032 15.647V15.647Z" stroke="#323232" stroke-width="1.5" stroke-linecap="round" stroke-linejoin="round"/>
<path d="M13.9165 10.084C14.9745 11.142 14.9745 12.858 13.9165 13.916C12.8585 14.974 11.1425 14.974 10.0845 13.916C9.02652 12.858 9.02652 11.142 10.0845 10.084C11.1425 9.026 12.8585 9.026 13.9165 10.084Z" stroke="#323232" stroke-width="1.5" stroke-linecap="round" stroke-linejoin="round"/>
</g>
<defs>
<clipPath id="clip0_6165_3754">
<rect width="24" height="24" fill="white"/>
</clipPath>
</defs>
</svg>
