<svg width="24" height="24" viewBox="0 0 24 24" fill="none" xmlns="http://www.w3.org/2000/svg">
<g clip-path="url(#clip0_6165_3736)">
<path d="M6.77389 15.1575L7 15.3871L7.22614 15.1574C7.4298 14.9493 7.67298 14.7839 7.94141 14.6711C8.20984 14.5582 8.49811 14.5 8.78931 14.5C9.08051 14.5 9.36879 14.5582 9.63721 14.6711C9.90564 14.7839 10.1488 14.9493 10.3525 15.1574V15.1574C10.7675 15.5815 11 16.1513 11 16.7447C11 17.3381 10.7675 17.9079 10.3525 18.3319L8.23743 20.4795C8.0762 20.6443 7.8837 20.7752 7.67121 20.8646C7.45872 20.954 7.23052 21 7 21C6.76948 21 6.54128 20.954 6.32879 20.8646C6.11629 20.7752 5.92379 20.6443 5.76257 20.4795L3.64751 18.332C3.23244 17.9079 3 17.3381 3 16.7447C3 16.1513 3.23244 15.5816 3.64751 15.1575V15.1575C3.85117 14.9494 4.09435 14.784 4.36278 14.6711C4.63121 14.5582 4.91949 14.5 5.21069 14.5C5.5019 14.5 5.79017 14.5582 6.05861 14.6711C6.32704 14.784 6.57022 14.9493 6.77389 15.1575Z" stroke="#323232" stroke-width="1.5" stroke-linecap="round" stroke-linejoin="round"/>
<path d="M12 21H16C17.3261 21 18.5979 20.4732 19.5355 19.5355C20.4732 18.5979 21 17.3261 21 16V8C21 6.67392 20.4732 5.40215 19.5355 4.46447C18.5979 3.52678 17.3261 3 16 3H8C6.67392 3 5.40215 3.52678 4.46447 4.46447C3.52678 5.40215 3 6.67392 3 8V12" stroke="#323232" stroke-width="1.5" stroke-linecap="round" stroke-linejoin="round"/>
<path d="M14 16H17" stroke="#323232" stroke-width="1.5" stroke-linecap="round" stroke-linejoin="round"/>
<path d="M16 16V10.8658" stroke="#323232" stroke-width="1.5" stroke-linecap="round" stroke-linejoin="round"/>
<path d="M8.64521 10.9996C8.88765 10.9995 9.12701 10.9453 9.34581 10.8408C9.5646 10.7364 9.75731 10.5844 9.90987 10.396C9.9524 10.3244 10.0128 10.2651 10.0852 10.2239C10.1576 10.1827 10.2394 10.161 10.3227 10.161C10.406 10.161 10.4879 10.1827 10.5603 10.2239C10.6326 10.2651 10.6931 10.3244 10.7356 10.396C10.8881 10.5845 11.0808 10.7365 11.2996 10.841C11.5184 10.9454 11.7578 10.9996 12.0003 10.9996C12.2427 10.9996 12.4821 10.9454 12.7009 10.841C12.9197 10.7365 13.1124 10.5845 13.2649 10.396C13.3075 10.3244 13.3679 10.2651 13.4403 10.2239C13.5126 10.1827 13.5945 10.161 13.6778 10.161C13.7611 10.161 13.8429 10.1827 13.9153 10.2239C13.9877 10.2651 14.0481 10.3244 14.0906 10.396C14.2432 10.5844 14.4359 10.7364 14.6547 10.8408C14.8735 10.9453 15.1129 10.9995 15.3553 10.9996C15.7251 10.997 16.0834 10.8709 16.3734 10.6415C16.6635 10.4121 16.8687 10.0925 16.9564 9.73326C17.0426 9.36608 16.9903 8.98 16.8095 8.649L16.3929 7.82423C16.2677 7.57635 16.0762 7.36806 15.8396 7.22255C15.6031 7.07703 15.3308 6.99999 15.0531 7H8.94732C8.66979 7 8.3977 7.07699 8.16132 7.22242C7.92495 7.36784 7.73355 7.576 7.60842 7.82372L7.19135 8.64942C7.01056 8.98042 6.95825 9.36648 7.04444 9.73365C7.13223 10.0929 7.33741 10.4125 7.62745 10.6419C7.91749 10.8713 8.2758 10.9973 8.64558 11" stroke="#323232" stroke-width="1.5" stroke-linecap="round" stroke-linejoin="round"/>
</g>
<defs>
<clipPath id="clip0_6165_3736">
<rect width="24" height="24" fill="white"/>
</clipPath>
</defs>
</svg>
