<svg width="112" height="112" viewBox="0 0 112 112" fill="none" xmlns="http://www.w3.org/2000/svg">
<circle cx="56" cy="56" r="56" fill="white"/>
<g clip-path="url(#clip0_552_5592)">
<path fill-rule="evenodd" clip-rule="evenodd" d="M36.4507 54.8049C34.5109 53.9894 30.5215 53.4848 28.7233 52.5512C27.0961 51.7096 27.1205 49.9333 28.1362 48.8655C29.8147 47.0929 35.4936 47.0233 36.8523 50.1372C36.9109 50.2702 36.95 50.4144 36.9878 50.5561H40.5414C40.3547 49.6524 40.29 49.0967 39.6918 48.0712C38.0572 45.2606 35.4253 44.1841 31.8143 44.1841C29.5998 44.1841 27.682 44.8367 26.3417 45.7566C25.171 46.5633 23.8086 48.4516 23.8086 50.4106C23.8086 51.8576 23.9758 52.8321 24.7974 53.987L25.7581 55.0237C26.1598 55.3531 26.4283 55.5955 26.9227 55.8478C29.2287 57.035 30.7864 57.1294 33.0338 57.7783C33.7187 57.9797 34.4694 58.145 35.0639 58.3688C35.7866 58.6373 36.1699 58.907 36.4495 59.091V54.8049H36.4507Z" fill="#4EB857"/>
<path fill-rule="evenodd" clip-rule="evenodd" d="M36.4515 63.3669C36.3672 63.4353 36.2793 63.5037 36.1866 63.5658C33.955 65.0563 28.5776 64.8126 27.164 61.925C26.9198 61.4215 26.8405 61.2202 26.7025 60.6558L26.4962 59.4898C26.351 59.1741 26.4755 59.3618 26.2875 59.3493L23 59.6651C23 61.7497 23.4273 63.2315 24.5259 64.7057C26.3766 67.1782 29.3406 67.9986 32.8954 67.9986C34.0295 67.9986 35.5066 67.7015 36.4527 67.3448V63.3669H36.4515Z" fill="#4EB857"/>
<path fill-rule="evenodd" clip-rule="evenodd" d="M57.9817 58.0181C57.9817 61.4602 59.1963 63.8692 61.3131 65.4367C62.9685 66.6624 66.1314 67.2902 68.2458 67.3598L70.9388 67.2703V52.5225H64.9986C62.7683 52.5225 61.2875 52.7139 59.9227 53.6723C58.791 54.4704 57.9805 56.0888 57.9805 58.0193L57.9817 58.0181Z" fill="#F15A31"/>
<path fill-rule="evenodd" clip-rule="evenodd" d="M40.632 53.3453V51.3278H37.1211V66.9905C37.1211 67.203 37.1858 67.2689 37.3945 67.2689H40.4525V58.3809C40.4525 57.0384 40.9982 55.5306 41.6428 54.8307C43.0857 53.2595 46.0228 52.5708 47.0153 54.5361C47.318 55.134 47.4682 56.1857 47.4682 57.0993V67.2689C50.5054 67.2689 50.1856 67.4914 50.1697 66.4485L50.1648 58.5649C50.1648 56.847 50.2198 55.9246 50.9205 54.8432C52.2047 52.8692 55.8328 52.725 56.47 55.0781C56.7679 56.1894 56.6751 64.2992 56.6422 66.4485C56.6251 67.4902 56.3077 67.2689 59.3437 67.2689C59.3437 62.0443 59.412 65.275 58.1486 61.9796C57.4808 60.2505 57.2074 57.2361 57.9911 55.4498C58.118 55.1676 58.2523 54.873 58.4281 54.607C58.8261 54.0227 59.3925 53.9494 58.4574 52.6864C56.6873 50.2948 52.6613 50.4315 50.5469 52.6305C50.2771 52.9077 49.9622 53.4323 49.7156 53.6163C49.2004 52.6255 49.1443 52.403 48.2385 51.733C46.4061 50.3656 42.8574 50.7559 41.058 52.8605C40.8835 53.0656 40.8444 53.1986 40.6295 53.344L40.632 53.3453Z" fill="#4EB857"/>
<path fill-rule="evenodd" clip-rule="evenodd" d="M83.3337 47.2969V51.2349C80.8714 51.2349 81.3548 50.7277 81.3548 53.4352H83.3337V63.9714C83.3337 67.5627 86.3489 67.8076 88.9992 67.1748C88.9992 66.4228 88.7013 65.4457 88.6391 64.7024C88.0348 64.8466 86.7054 64.9895 86.261 64.3767C86.0853 64.1343 86.0303 63.8049 86.0303 63.4207V53.4352H88.6391C88.6391 52.1411 88.8356 51.2349 88.3705 51.2349H86.0303V45.8325C85.426 45.8835 83.9575 47.1477 83.3337 47.2969Z" fill="#4EB857"/>
<path fill-rule="evenodd" clip-rule="evenodd" d="M74.6402 53.6187V51.2357H72.4844C72.2744 51.2357 72.2109 51.2991 72.2109 51.5142V67.1756H74.9125C74.9125 64.6336 74.7147 58.1683 75.3055 56.0365C75.8292 54.1408 77.2893 53.4186 78.9715 53.9742C79.3365 54.0935 79.483 54.2638 79.8565 54.3546C80.0372 53.5764 80.6292 52.3595 80.7586 51.7864C78.272 50.4464 76.4213 50.5781 74.9503 53.1053L74.7525 53.4608C74.6537 53.6286 74.7245 53.5255 74.6402 53.6187Z" fill="#4EB857"/>
<path fill-rule="evenodd" clip-rule="evenodd" d="M67.1602 48.5795C67.1602 49.4459 67.5056 50.3098 68.7789 50.2315C70.9897 50.096 72.0261 48.0698 72.7439 46.1679C72.9538 45.6123 73.2212 44.6862 73.2761 44C72.8977 44.0087 70.2181 44.7608 69.294 45.35C68.3821 45.9317 67.1602 47.1736 67.1602 48.5795Z" fill="#4EB857"/>
<path fill-rule="evenodd" clip-rule="evenodd" d="M62.4856 47.4817C62.4856 48.225 62.9654 48.2337 63.5013 48.4637C65.6901 49.391 66.2931 51.4272 66.6215 51.513C66.8827 51.5813 67.2111 51.1351 67.2941 50.8206C67.4419 50.2624 66.1967 48.4935 65.8793 48.148C65.0321 47.2194 64.2752 46.4686 63.0886 45.9664C62.875 45.8756 62.5564 45.7178 62.5503 45.862C62.5503 45.862 62.4844 47.1262 62.4844 47.4817H62.4856Z" fill="#4EB857"/>
</g>
<defs>
<clipPath id="clip0_552_5592">
<rect width="66" height="24" fill="white" transform="translate(23 44)"/>
</clipPath>
</defs>
</svg>
