<svg width="112" height="112" viewBox="0 0 112 112" fill="none" xmlns="http://www.w3.org/2000/svg">
<circle cx="56" cy="56" r="56" fill="white"/>
<g clip-path="url(#clip0_552_5605)">
<path d="M19.145 62.3301V58.8108H23.0153V57.4737H14V58.8108H17.8304V62.3301H19.145ZM32.9399 62.3301H23.9361V57.4726H32.9399V58.8098H25.2308V59.2114H32.9399V60.4891H25.2308V60.8917H32.9399V62.329V62.3301ZM41.5867 59.0101C41.5867 58.9506 41.5467 58.8849 41.4659 58.8108H35.1354V59.1926H41.4659C41.5467 59.1446 41.5867 59.0841 41.5867 59.0101ZM42.8729 59.3042C42.8729 60.0281 42.643 60.4192 42.1841 60.4797L42.9537 62.3311H41.5782L40.7971 60.4912H35.1354V62.3311H33.8492V57.4518H42.0434C42.5978 57.4518 42.8729 57.8137 42.8729 58.5386V59.3063V59.3042ZM51.4913 59.0101C51.4913 58.9506 51.4514 58.8849 51.3705 58.8108H45.0401V59.1926H51.3705C51.4514 59.1446 51.4913 59.0841 51.4913 59.0101ZM52.7775 59.3042C52.7775 60.0281 52.5476 60.4192 52.0887 60.4797L52.8584 62.3311H51.4829L50.7017 60.4912H45.0401V62.3311H43.7538V57.4518H51.948C52.5024 57.4518 52.7775 57.8137 52.7775 58.5386V59.3063V59.3042ZM55.0256 58.8505C55.0109 58.8505 54.9857 58.8932 54.9448 58.9819V59.1926H61.3361V58.9903C61.2878 58.9162 61.2552 58.8703 61.2353 58.8505H55.0256ZM62.6822 62.3301H61.3266V60.4901H54.9448V62.3301H53.6585V58.5084C53.6669 57.8179 54.0312 57.4726 54.7526 57.4726H61.7005C62.3546 57.4726 62.6822 57.8408 62.6822 58.5793V62.3301ZM76.8845 59.0299C76.8845 58.9642 76.8362 58.8901 76.7407 58.8108H70.4417V59.2124H76.7721C76.8467 59.1644 76.8845 59.1039 76.8845 59.0299ZM70.4417 60.4901V62.3301H69.1554V57.4507H77.3497C77.904 57.4507 78.1791 57.8127 78.1791 58.5376V59.3052C78.1791 60.0948 77.904 60.4922 77.3497 60.4922H70.4417V60.4901ZM86.8175 59.0101C86.8175 58.9506 86.7776 58.8849 86.6967 58.8108H80.3663V59.1926H86.6967C86.7776 59.1446 86.8175 59.0841 86.8175 59.0101ZM88.1037 59.3042C88.1037 60.0281 87.8738 60.4192 87.4149 60.4797L88.1846 62.3311H86.8091L86.0279 60.4912H80.3663V62.3311H79.08V57.4518H87.2742C87.8286 57.4518 88.1037 57.8137 88.1037 58.5386V59.3063V59.3042ZM96.5615 60.9439C96.5877 60.9355 96.6329 60.8813 96.6938 60.7811V59.0414C96.6938 58.961 96.6707 58.9016 96.6224 58.8588C96.5741 58.8192 96.5163 58.7931 96.4502 58.7785L96.4901 58.79H90.4232C90.3486 58.8098 90.3109 58.8922 90.3109 59.0414V60.7811C90.3507 60.8896 90.3885 60.9439 90.4232 60.9439H96.5615ZM89.9182 62.3301C89.2955 62.3301 88.9847 61.9076 88.9847 61.0638V58.5678C88.9847 57.8231 89.2976 57.4497 89.9265 57.4497H97.098C97.6976 57.4497 98 57.8231 98 58.5678V61.0638C98 61.9076 97.6986 62.3301 97.098 62.3301H89.9171H89.9182ZM25.677 67.3627L25.9343 67.2094C26.1149 67.5411 26.3238 67.7059 26.5622 67.7059C26.664 67.7059 26.7596 67.6819 26.8489 67.636C26.9381 67.5901 27.0063 67.5265 27.0536 67.4472C27.0998 67.3679 27.1229 67.2845 27.1229 67.1958C27.1229 67.0946 27.0882 66.9945 27.02 66.8986C26.9255 66.764 26.7522 66.6044 26.5013 66.4146C26.2493 66.2258 26.0907 66.0881 26.0288 66.0036C25.9227 65.8618 25.8681 65.7095 25.8681 65.5437C25.8681 65.4122 25.8996 65.2933 25.9626 65.1848C26.0257 65.0764 26.1149 64.9929 26.2294 64.9293C26.3438 64.8678 26.4688 64.8365 26.6042 64.8365C26.747 64.8365 26.8804 64.8719 27.0053 64.9418C27.1302 65.0117 27.2615 65.141 27.4001 65.3298L27.1523 65.5155C27.0389 65.3653 26.9402 65.2672 26.8604 65.2182C26.7806 65.1702 26.6913 65.1473 26.5968 65.1473C26.475 65.1473 26.3753 65.1838 26.2976 65.2579C26.2199 65.3319 26.1811 65.4216 26.1811 65.5301C26.1811 65.5958 26.1947 65.6594 26.222 65.7199C26.2493 65.7815 26.2997 65.8482 26.3732 65.9212C26.4131 65.9609 26.5433 66.06 26.7648 66.2227C27.0263 66.4135 27.2079 66.5846 27.3056 66.7348C27.4022 66.886 27.4515 67.0362 27.4515 67.1885C27.4515 67.4065 27.3675 67.5963 27.2016 67.757C27.0347 67.9186 26.831 67.999 26.5916 67.999C26.4078 67.999 26.2409 67.9499 26.0918 67.8519C25.9427 67.7549 25.8031 67.5911 25.6781 67.3627H25.677ZM29.225 64.9126H29.5274V67.9239H29.225V64.9126ZM31.262 67.9239L31.6925 64.9126H31.7418L32.9735 67.3836L34.1936 64.9126H34.2429L34.6787 67.9239H34.3794L34.0833 65.771L33.0113 67.9239H32.9357L31.85 65.7543L31.556 67.9239H31.2631H31.262ZM36.4543 64.9126H37.0569C37.4024 64.9126 37.6376 64.9283 37.7584 64.9575C37.9316 64.9992 38.0733 65.0858 38.1825 65.2182C38.2928 65.3496 38.3474 65.5165 38.3474 65.7147C38.3474 65.9129 38.2938 66.0819 38.1868 66.2112C38.0786 66.3416 37.9305 66.4302 37.7426 66.474C37.605 66.5074 37.3488 66.5241 36.9719 66.5241H36.7556V67.9239H36.4532V64.9126H36.4543ZM36.7566 65.2047V66.2289L37.2701 66.2352C37.4769 66.2352 37.6292 66.2164 37.7258 66.1778C37.8214 66.1413 37.8969 66.0808 37.9515 65.9963C38.0061 65.9118 38.0345 65.818 38.0345 65.7147C38.0345 65.6114 38.0072 65.5228 37.9515 65.4383C37.8969 65.3538 37.8234 65.2944 37.7342 65.2589C37.6439 65.2234 37.4969 65.2057 37.2932 65.2057H36.7577L36.7566 65.2047ZM40.1303 64.9126H40.4359V67.6329H41.6013V67.9239H40.1313V64.9126H40.1303ZM43.2604 64.9126H44.997V65.2099H43.5627V66.1507H44.9855V66.4459H43.5627V67.6266H44.9855V67.9239H43.2604V64.9126ZM49.0416 64.9126H49.6443C49.9898 64.9126 50.225 64.9283 50.3457 64.9575C50.519 64.9992 50.6607 65.0858 50.77 65.2182C50.8802 65.3496 50.9348 65.5165 50.9348 65.7147C50.9348 65.9129 50.8812 66.0819 50.7742 66.2112C50.666 66.3416 50.5179 66.4302 50.33 66.474C50.1924 66.5074 49.9362 66.5241 49.5593 66.5241H49.343V67.9239H49.0406V64.9126H49.0416ZM49.344 65.2047V66.2289L49.8575 66.2352C50.0644 66.2352 50.2166 66.2164 50.3132 66.1778C50.4087 66.1413 50.4843 66.0808 50.5389 65.9963C50.5935 65.9118 50.6219 65.818 50.6219 65.7147C50.6219 65.6114 50.5946 65.5228 50.5389 65.4383C50.4843 65.3538 50.4109 65.2944 50.3216 65.2589C50.2323 65.2234 50.0843 65.2057 49.8806 65.2057H49.3451L49.344 65.2047ZM52.7198 64.9126H54.4565V65.2099H53.0222V66.1507H54.445V66.4459H53.0222V67.6266H54.445V67.9239H52.7198V64.9126ZM56.1732 64.9126H56.777C57.113 64.9126 57.3419 64.9272 57.4616 64.9543C57.6412 64.995 57.7871 65.0826 57.9005 65.2172C58.0128 65.3517 58.0695 65.5176 58.0695 65.7137C58.0695 65.8764 58.0317 66.0203 57.953 66.1444C57.8753 66.2696 57.764 66.3635 57.6191 66.4261C57.4742 66.4886 57.2757 66.522 57.0216 66.5231L58.1115 67.9228H57.7367L56.6479 66.5231H56.4746V67.9228H56.1722V64.9116L56.1732 64.9126ZM56.4756 65.2067V66.23L56.9975 66.2352C57.2001 66.2352 57.3492 66.2164 57.4458 66.1768C57.5424 66.1392 57.618 66.0777 57.6716 65.9942C57.7252 65.9108 57.7524 65.8169 57.7524 65.7137C57.7524 65.6104 57.7252 65.5197 57.6716 65.4383C57.617 65.3559 57.5445 65.2964 57.4553 65.261C57.366 65.2255 57.2169 65.2078 57.009 65.2078H56.4756V65.2067ZM59.5826 67.3627L59.8398 67.2094C60.0205 67.5411 60.2294 67.7059 60.4677 67.7059C60.5696 67.7059 60.6651 67.6819 60.7544 67.636C60.8436 67.5901 60.9119 67.5265 60.9591 67.4472C61.0053 67.3679 61.0285 67.2845 61.0285 67.1958C61.0285 67.0946 60.9938 66.9945 60.9255 66.8986C60.831 66.764 60.6578 66.6044 60.4058 66.4146C60.1538 66.2258 59.9952 66.0881 59.9333 66.0036C59.8272 65.8618 59.7726 65.7095 59.7726 65.5437C59.7726 65.4122 59.8041 65.2933 59.8671 65.1848C59.9301 65.0764 60.0194 64.9929 60.1338 64.9293C60.2483 64.8678 60.3732 64.8365 60.5087 64.8365C60.6515 64.8365 60.7849 64.8719 60.9098 64.9418C61.0347 65.0117 61.166 65.141 61.3046 65.3298L61.0568 65.5155C60.9434 65.3653 60.8447 65.2672 60.7649 65.2182C60.6851 65.1702 60.5958 65.1473 60.5013 65.1473C60.3795 65.1473 60.2798 65.1838 60.2021 65.2579C60.1244 65.3319 60.0855 65.4216 60.0855 65.5301C60.0855 65.5958 60.0992 65.6594 60.1265 65.7199C60.1538 65.7815 60.2042 65.8482 60.2777 65.9212C60.3176 65.9609 60.4478 66.06 60.6693 66.2227C60.9319 66.4135 61.1124 66.5846 61.2101 66.7348C61.3067 66.886 61.356 67.0362 61.356 67.1885C61.356 67.4065 61.272 67.5963 61.1061 67.757C60.9392 67.9186 60.7355 67.999 60.4961 67.999C60.3124 67.999 60.1454 67.9499 59.9963 67.8519C59.8472 67.7549 59.7075 67.5911 59.5826 67.3627ZM64.6194 64.8365C65.0772 64.8365 65.4615 64.9888 65.7713 65.2933C66.08 65.5989 66.2343 65.9734 66.2343 66.4177C66.2343 66.862 66.08 67.2334 65.7724 67.539C65.4636 67.8467 65.0877 68 64.6446 68C64.2015 68 63.8151 67.8467 63.5075 67.5411C63.1978 67.2355 63.0434 66.8652 63.0434 66.4313C63.0434 66.1424 63.1138 65.8743 63.2555 65.6271C63.3951 65.3809 63.5883 65.1869 63.8309 65.0472C64.0734 64.9074 64.337 64.8365 64.6205 64.8365H64.6194ZM64.6342 65.1316C64.4105 65.1316 64.1973 65.1901 63.9978 65.3048C63.7973 65.4216 63.6398 65.5781 63.5275 65.7742C63.4151 65.9703 63.3584 66.1903 63.3584 66.4313C63.3584 66.789 63.4823 67.0905 63.7332 67.3366C63.9821 67.5828 64.2824 67.7059 64.6342 67.7059C64.8683 67.7059 65.0867 67.6485 65.2862 67.5359C65.4857 67.4232 65.6422 67.2678 65.7534 67.0717C65.8647 66.8756 65.9214 66.6566 65.9214 66.4167C65.9214 66.1768 65.8647 65.9629 65.7534 65.7689C65.6422 65.5749 65.4846 65.4206 65.2809 65.3048C65.0773 65.1901 64.862 65.1316 64.6342 65.1316ZM68.0225 67.9239V64.9126H68.0886L70.1046 67.2177V64.9126H70.4039V67.9239H70.3357L68.3364 65.648V67.9239H68.0235H68.0225ZM73.5591 64.9126L74.9714 67.9239H74.6459L74.1692 66.933H72.863L72.3895 67.9239H72.0513L73.4846 64.9126H73.5591ZM73.5224 65.552L73.0005 66.643H74.0369L73.5224 65.552ZM76.6199 64.9126H76.9254V67.6329H78.091V67.9239H76.6209V64.9126H76.6199ZM79.7038 64.9126H80.0061V67.9239H79.7038V64.9126ZM81.578 65.2047V64.9126H83.2412V65.2047H82.565V67.9239H82.2563V65.2047H81.578ZM84.6146 64.9126H84.9642L85.7391 66.1528L86.5014 64.9126H86.8521L85.8924 66.4845V67.9239H85.5932V66.4845L84.6146 64.9126ZM59.2844 55.059V53.5821C59.2844 53.5821 59.3978 53.1273 59.7338 53.1273H63.1673C63.1673 53.1273 63.5873 53.0961 63.5873 52.7842V47.7609C63.5873 47.7609 63.5799 47.3301 63.1536 47.3301H56.3276C56.3276 47.3301 55.8362 47.3646 55.8362 47.7776C55.8362 48.1906 56.0704 48.2397 56.3297 48.2397H62.2349C62.2349 48.2397 62.6318 48.2918 62.6318 48.6715V51.8058C62.6318 51.8058 62.4942 52.1907 62.28 52.1907H58.9285C58.9285 52.1907 58.3667 52.0801 58.3667 52.6841V55.0601C58.3667 55.0601 58.416 55.4147 58.8088 55.4147C59.2015 55.4147 59.2833 55.0601 59.2833 55.0601L59.2844 55.059ZM55.9107 52.1834H50.4129C50.4129 52.1834 49.9121 52.052 49.9121 51.787V48.78C49.9121 48.78 49.8837 48.2282 50.4675 48.2282H53.6343C53.6343 48.2282 54.0176 48.1437 54.0176 47.7912C54.0176 47.4386 53.7603 47.3312 53.6438 47.3312H50.4602C50.4602 47.3312 49.931 47.2467 49.931 46.9338V45.3776C49.931 45.3776 49.9804 45 49.4942 45C49.1194 45 49.0049 45.2399 49.0049 45.3651V52.6611C49.0049 52.6611 49.0196 53.1482 49.4281 53.1482C49.8365 53.1482 55.9244 53.1242 55.9244 53.1242C55.9244 53.1242 56.5649 53.1482 56.5649 52.659C56.5649 52.1698 56.0452 52.1824 55.9118 52.1824L55.9107 52.1834Z" fill="#231F20"/>
</g>
<defs>
<clipPath id="clip0_552_5605">
<rect width="84" height="23" fill="white" transform="translate(14 45)"/>
</clipPath>
</defs>
</svg>
