<svg width="47" height="28" viewBox="0 0 47 28" fill="none" xmlns="http://www.w3.org/2000/svg">
<rect width="47" height="28" rx="4" fill="#FF034C"/>
<path d="M8.55682 10.3643V8.81818H16.6804V10.3643H13.5334V19H11.7038V10.3643H8.55682ZM26.8933 13.9091C26.8933 15.0062 26.6878 15.9458 26.2768 16.728C25.8691 17.5069 25.3123 18.1035 24.6064 18.5178C23.9037 18.9321 23.1066 19.1392 22.215 19.1392C21.3234 19.1392 20.5247 18.9321 19.8187 18.5178C19.1161 18.1001 18.5592 17.5019 18.1483 16.723C17.7406 15.9408 17.5368 15.0028 17.5368 13.9091C17.5368 12.812 17.7406 11.8741 18.1483 11.0952C18.5592 10.313 19.1161 9.71473 19.8187 9.30043C20.5247 8.88613 21.3234 8.67898 22.215 8.67898C23.1066 8.67898 23.9037 8.88613 24.6064 9.30043C25.3123 9.71473 25.8691 10.313 26.2768 11.0952C26.6878 11.8741 26.8933 12.812 26.8933 13.9091ZM25.0389 13.9091C25.0389 13.1368 24.9179 12.4856 24.676 11.9553C24.4373 11.4216 24.1059 11.0189 23.6816 10.7472C23.2574 10.4721 22.7685 10.3345 22.215 10.3345C21.6615 10.3345 21.1726 10.4721 20.7484 10.7472C20.3242 11.0189 19.9911 11.4216 19.7491 11.9553C19.5105 12.4856 19.3912 13.1368 19.3912 13.9091C19.3912 14.6813 19.5105 15.3343 19.7491 15.8679C19.9911 16.3982 20.3242 16.8009 20.7484 17.076C21.1726 17.3478 21.6615 17.4837 22.215 17.4837C22.7685 17.4837 23.2574 17.3478 23.6816 17.076C24.1059 16.8009 24.4373 16.3982 24.676 15.8679C24.9179 15.3343 25.0389 14.6813 25.0389 13.9091ZM36.9446 8.81818V19H35.1151V10.3494H30.6605V19H28.831V8.81818H36.9446Z" fill="white"/>
</svg>
